<?xml version="1.0" encoding="UTF-8"?>
<svg xmlns="http://www.w3.org/2000/svg"
     width="843" height="863"
     viewBox="0 0 843 863"
     role="img" aria-label="Kawal construction worker logo">
  <path d="
    M 644.00 388.00 L 622.00 369.00 L 588.00 353.00 L 515.00 379.00 L 432.00 418.00 L 428.00 417.00 L 426.00 391.00 L 375.00 421.00 L 281.00 500.00 L 220.00 562.00 L 177.00 615.00 L 174.00 623.00 L 177.00 653.00 L 211.00 729.00 L 126.00 691.00 L 97.00 688.00 L 82.00 694.00 L 67.00 708.00 L 44.00 751.00 L 25.00 806.00 L 26.00 830.00 L 38.00 837.00 L 63.00 838.00 L 81.00 833.00 L 109.00 816.00 L 211.00 837.00 L 259.00 838.00 L 277.00 833.00 L 299.00 815.00 L 308.00 799.00 L 324.00 739.00 L 333.00 682.00 L 436.00 630.00 L 398.00 703.00 L 375.00 757.00 L 361.00 805.00 L 361.00 831.00 L 372.00 837.00 L 581.00 835.00 L 583.00 815.00 L 572.00 789.00 L 555.00 774.00 L 522.00 764.00 L 575.00 599.00 L 577.00 566.00 L 567.00 539.00 L 543.00 520.00 L 508.00 516.00 L 481.00 522.00 L 403.00 550.00 L 383.00 551.00 L 360.00 541.00 L 340.00 519.00 L 327.00 495.00 L 330.00 494.00 L 359.00 526.00 L 377.00 537.00 L 398.00 540.00 L 414.00 536.00 L 556.00 444.00 L 586.00 463.00 L 603.00 462.00 L 610.00 450.00 L 620.00 447.00 L 624.00 435.00 L 635.00 429.00 L 637.00 418.00 L 647.00 412.00 L 649.00 398.00 Z
    M 818.00 285.00 L 817.00 284.00 L 817.00 280.00 L 816.00 279.00 L 816.00 278.00 L 813.00 275.00 L 809.00 275.00 L 808.00 276.00 L 803.00 276.00 L 802.00 277.00 L 799.00 277.00 L 798.00 278.00 L 796.00 278.00 L 795.00 279.00 L 792.00 279.00 L 791.00 280.00 L 788.00 280.00 L 787.00 281.00 L 784.00 281.00 L 783.00 282.00 L 781.00 282.00 L 780.00 283.00 L 778.00 283.00 L 777.00 284.00 L 777.00 285.00 L 776.00 286.00 L 776.00 290.00 L 779.00 293.00 L 781.00 293.00 L 782.00 294.00 L 792.00 294.00 L 793.00 295.00 L 814.00 295.00 L 816.00 293.00 L 816.00 292.00 L 817.00 291.00 L 817.00 289.00 L 818.00 288.00 Z
    M 787.00 216.00 L 782.00 216.00 L 781.00 217.00 L 780.00 217.00 L 772.00 225.00 L 772.00 226.00 L 768.00 230.00 L 768.00 231.00 L 763.00 236.00 L 763.00 237.00 L 760.00 240.00 L 760.00 241.00 L 756.00 245.00 L 756.00 246.00 L 754.00 248.00 L 754.00 249.00 L 752.00 251.00 L 752.00 258.00 L 754.00 260.00 L 759.00 260.00 L 760.00 259.00 L 761.00 259.00 L 762.00 258.00 L 763.00 258.00 L 765.00 256.00 L 766.00 256.00 L 768.00 254.00 L 769.00 254.00 L 770.00 253.00 L 771.00 253.00 L 773.00 251.00 L 774.00 251.00 L 775.00 250.00 L 776.00 250.00 L 777.00 249.00 L 778.00 249.00 L 780.00 247.00 L 781.00 247.00 L 783.00 245.00 L 784.00 245.00 L 785.00 244.00 L 786.00 244.00 L 788.00 242.00 L 789.00 242.00 L 791.00 240.00 L 792.00 240.00 L 796.00 236.00 L 796.00 229.00 L 795.00 228.00 L 795.00 227.00 L 794.00 226.00 L 794.00 225.00 L 793.00 224.00 L 793.00 223.00 L 791.00 221.00 L 791.00 220.00 Z
    M 737.00 180.00 L 735.00 180.00 L 731.00 178.00 L 725.00 178.00 L 724.00 177.00 L 712.00 177.00 L 711.00 178.00 L 705.00 178.00 L 704.00 179.00 L 701.00 179.00 L 700.00 180.00 L 692.00 182.00 L 689.00 184.00 L 687.00 184.00 L 677.00 190.00 L 674.00 193.00 L 673.00 193.00 L 665.00 201.00 L 665.00 202.00 L 661.00 206.00 L 661.00 207.00 L 657.00 212.00 L 652.00 222.00 L 652.00 224.00 L 650.00 227.00 L 650.00 230.00 L 648.00 234.00 L 648.00 237.00 L 647.00 238.00 L 647.00 243.00 L 646.00 244.00 L 646.00 256.00 L 645.00 257.00 L 645.00 259.00 L 646.00 260.00 L 646.00 274.00 L 647.00 275.00 L 647.00 288.00 L 642.00 297.00 L 638.00 301.00 L 638.00 302.00 L 635.00 305.00 L 635.00 306.00 L 632.00 309.00 L 632.00 310.00 L 629.00 313.00 L 629.00 314.00 L 626.00 317.00 L 626.00 318.00 L 623.00 321.00 L 623.00 322.00 L 620.00 325.00 L 620.00 326.00 L 610.00 338.00 L 608.00 342.00 L 603.00 348.00 L 603.00 350.00 L 604.00 351.00 L 616.00 357.00 L 618.00 359.00 L 628.00 365.00 L 632.00 369.00 L 637.00 372.00 L 646.00 381.00 L 649.00 381.00 L 650.00 380.00 L 650.00 379.00 L 658.00 370.00 L 661.00 365.00 L 665.00 361.00 L 665.00 360.00 L 669.00 356.00 L 669.00 355.00 L 673.00 351.00 L 673.00 350.00 L 677.00 346.00 L 677.00 345.00 L 689.00 332.00 L 691.00 331.00 L 698.00 331.00 L 699.00 332.00 L 715.00 332.00 L 716.00 331.00 L 721.00 331.00 L 722.00 330.00 L 725.00 330.00 L 731.00 327.00 L 733.00 327.00 L 737.00 324.00 L 740.00 323.00 L 750.00 314.00 L 750.00 313.00 L 753.00 310.00 L 757.00 302.00 L 757.00 300.00 L 759.00 297.00 L 759.00 294.00 L 760.00 293.00 L 760.00 286.00 L 759.00 284.00 L 757.00 284.00 L 756.00 285.00 L 749.00 285.00 L 748.00 286.00 L 743.00 286.00 L 742.00 287.00 L 736.00 287.00 L 732.00 285.00 L 730.00 283.00 L 727.00 282.00 L 725.00 280.00 L 716.00 276.00 L 714.00 274.00 L 708.00 271.00 L 708.00 266.00 L 707.00 265.00 L 707.00 261.00 L 706.00 260.00 L 706.00 256.00 L 705.00 255.00 L 705.00 250.00 L 704.00 249.00 L 704.00 245.00 L 703.00 244.00 L 703.00 239.00 L 702.00 238.00 L 702.00 234.00 L 701.00 233.00 L 701.00 228.00 L 714.00 214.00 L 714.00 213.00 L 718.00 209.00 L 718.00 208.00 L 737.00 186.00 L 737.00 185.00 L 739.00 183.00 L 739.00 181.00 Z
    M 462.00 164.00 L 463.00 163.00 L 479.00 163.00 L 480.00 164.00 L 491.00 164.00 L 492.00 165.00 L 499.00 165.00 L 500.00 166.00 L 507.00 166.00 L 508.00 167.00 L 513.00 167.00 L 514.00 168.00 L 519.00 168.00 L 520.00 169.00 L 525.00 169.00 L 526.00 170.00 L 530.00 170.00 L 531.00 171.00 L 535.00 171.00 L 536.00 172.00 L 540.00 172.00 L 541.00 173.00 L 544.00 173.00 L 545.00 174.00 L 549.00 174.00 L 550.00 175.00 L 553.00 175.00 L 554.00 176.00 L 557.00 176.00 L 558.00 177.00 L 560.00 177.00 L 561.00 178.00 L 564.00 178.00 L 565.00 179.00 L 567.00 179.00 L 568.00 180.00 L 570.00 180.00 L 571.00 181.00 L 573.00 181.00 L 574.00 182.00 L 576.00 182.00 L 577.00 183.00 L 579.00 183.00 L 580.00 184.00 L 581.00 184.00 L 582.00 185.00 L 582.00 187.00 L 581.00 188.00 L 578.00 188.00 L 577.00 189.00 L 572.00 189.00 L 571.00 190.00 L 548.00 190.00 L 547.00 189.00 L 541.00 189.00 L 540.00 188.00 L 537.00 188.00 L 536.00 187.00 L 532.00 187.00 L 531.00 186.00 L 527.00 186.00 L 526.00 185.00 L 523.00 185.00 L 522.00 184.00 L 520.00 184.00 L 519.00 183.00 L 516.00 183.00 L 515.00 182.00 L 512.00 182.00 L 511.00 181.00 L 509.00 181.00 L 508.00 180.00 L 505.00 180.00 L 504.00 179.00 L 502.00 179.00 L 501.00 178.00 L 499.00 178.00 L 498.00 177.00 L 495.00 177.00 L 494.00 176.00 L 492.00 176.00 L 491.00 175.00 L 489.00 175.00 L 488.00 174.00 L 486.00 174.00 L 485.00 173.00 L 483.00 173.00 L 482.00 172.00 L 479.00 172.00 L 478.00 171.00 L 476.00 171.00 L 475.00 170.00 L 473.00 170.00 L 472.00 169.00 L 469.00 169.00 L 468.00 168.00 L 466.00 168.00 L 465.00 167.00 L 463.00 167.00 L 462.00 166.00 Z
    M 405.00 56.00 L 406.00 55.00 L 408.00 55.00 L 409.00 54.00 L 411.00 54.00 L 412.00 53.00 L 414.00 53.00 L 415.00 52.00 L 417.00 52.00 L 418.00 51.00 L 422.00 51.00 L 423.00 50.00 L 428.00 50.00 L 429.00 49.00 L 456.00 49.00 L 457.00 50.00 L 462.00 50.00 L 463.00 51.00 L 467.00 51.00 L 468.00 52.00 L 470.00 52.00 L 471.00 53.00 L 474.00 53.00 L 475.00 54.00 L 477.00 54.00 L 478.00 55.00 L 480.00 55.00 L 483.00 57.00 L 485.00 57.00 L 486.00 58.00 L 487.00 58.00 L 488.00 59.00 L 489.00 59.00 L 490.00 60.00 L 493.00 61.00 L 495.00 63.00 L 496.00 63.00 L 498.00 65.00 L 499.00 65.00 L 501.00 67.00 L 502.00 67.00 L 505.00 70.00 L 506.00 70.00 L 522.00 86.00 L 522.00 87.00 L 525.00 90.00 L 525.00 91.00 L 527.00 93.00 L 528.00 96.00 L 530.00 98.00 L 530.00 99.00 L 531.00 100.00 L 531.00 101.00 L 532.00 102.00 L 532.00 103.00 L 533.00 104.00 L 533.00 105.00 L 534.00 106.00 L 534.00 107.00 L 536.00 110.00 L 536.00 112.00 L 538.00 115.00 L 538.00 117.00 L 539.00 118.00 L 539.00 120.00 L 540.00 121.00 L 540.00 124.00 L 541.00 125.00 L 541.00 129.00 L 542.00 130.00 L 542.00 135.00 L 543.00 136.00 L 543.00 149.00 L 542.00 150.00 L 538.00 150.00 L 537.00 149.00 L 534.00 149.00 L 533.00 148.00 L 531.00 148.00 L 530.00 147.00 L 530.00 145.00 L 529.00 144.00 L 529.00 140.00 L 528.00 139.00 L 528.00 136.00 L 527.00 135.00 L 527.00 132.00 L 526.00 131.00 L 526.00 129.00 L 525.00 128.00 L 525.00 126.00 L 524.00 125.00 L 524.00 123.00 L 522.00 120.00 L 522.00 118.00 L 521.00 117.00 L 521.00 116.00 L 520.00 115.00 L 520.00 114.00 L 519.00 113.00 L 518.00 110.00 L 516.00 108.00 L 515.00 105.00 L 513.00 103.00 L 513.00 102.00 L 511.00 100.00 L 511.00 99.00 L 508.00 96.00 L 508.00 95.00 L 504.00 91.00 L 504.00 90.00 L 496.00 82.00 L 495.00 82.00 L 491.00 78.00 L 490.00 78.00 L 487.00 75.00 L 486.00 75.00 L 484.00 73.00 L 481.00 72.00 L 479.00 70.00 L 478.00 70.00 L 477.00 69.00 L 476.00 69.00 L 475.00 68.00 L 474.00 68.00 L 471.00 66.00 L 469.00 66.00 L 466.00 64.00 L 464.00 64.00 L 463.00 63.00 L 461.00 63.00 L 460.00 62.00 L 458.00 62.00 L 457.00 61.00 L 454.00 61.00 L 453.00 60.00 L 449.00 60.00 L 448.00 59.00 L 443.00 59.00 L 442.00 58.00 L 433.00 58.00 L 432.00 57.00 L 420.00 57.00 L 419.00 58.00 L 409.00 58.00 L 408.00 59.00 L 406.00 59.00 L 405.00 58.00 Z
    M 501.00 40.00 L 471.00 28.00 L 443.00 24.00 L 412.00 26.00 L 385.00 34.00 L 360.00 48.00 L 339.00 67.00 L 320.00 96.00 L 310.00 130.00 L 300.00 134.00 L 291.00 142.00 L 287.00 153.00 L 288.00 159.00 L 298.00 168.00 L 424.00 186.00 L 425.00 189.00 L 318.00 196.00 L 322.00 218.00 L 330.00 236.00 L 355.00 268.00 L 269.00 269.00 L 258.00 273.00 L 250.00 282.00 L 171.00 598.00 L 228.00 528.00 L 284.00 471.00 L 350.00 417.00 L 407.00 383.00 L 429.00 294.00 L 465.00 289.00 L 495.00 273.00 L 512.00 256.00 L 521.00 242.00 L 532.00 208.00 L 543.00 210.00 L 581.00 209.00 L 595.00 205.00 L 607.00 196.00 L 608.00 185.00 L 606.00 181.00 L 592.00 170.00 L 573.00 160.00 L 568.00 125.00 L 559.00 101.00 L 547.00 81.00 L 523.00 55.00 Z
  " fill="#FD7124" fill-rule="evenodd" clip-rule="evenodd"/>
</svg>
